<?xml version="1.0" encoding="UTF-8"?>
<svg xmlns="http://www.w3.org/2000/svg" xmlns:xlink="http://www.w3.org/1999/xlink" viewBox="0 0 48 48" width="48px" height="48px">
<g id="surface46501488">
<path style=" stroke:none;fill-rule:nonzero;fill:rgb(20.392157%,59.607846%,85.882354%);fill-opacity:1;" d="M 18.539062 3.839844 C 18.25 3.839844 17.957031 3.828125 17.671875 4.019531 C 17.382812 4.210938 17.28125 4.511719 17.28125 4.800781 L 17.28125 39.929688 C 17.28125 40.3125 17.558594 40.699219 17.941406 40.890625 L 25.621094 43.199219 L 25.921875 43.199219 C 26.109375 43.199219 26.296875 43.117188 26.488281 43.019531 C 26.777344 42.828125 26.878906 42.527344 26.878906 42.238281 L 26.878906 12.871094 C 27.457031 13.160156 27.839844 13.730469 27.839844 14.398438 L 27.839844 25.050781 C 27.839844 25.339844 28.03125 25.734375 28.320312 25.828125 C 28.511719 25.925781 29.953125 26.789062 32.640625 26.789062 C 35.230469 26.789062 38.398438 25.359375 38.398438 18.539062 C 38.398438 13.070312 35.339844 8.921875 30.058594 7.289062 Z M 16.320312 25.351562 L 5.671875 29.191406 L 4.140625 29.761719 C 1.546875 30.816406 0 32.53125 0 34.261719 C 0 37.910156 2.589844 40.019531 7.199219 40.019531 C 9.699219 40.019531 12.769531 39.46875 16.320312 38.21875 L 16.320312 34.558594 C 15.457031 34.847656 14.507812 35.230469 13.738281 35.519531 C 12.203125 36.097656 11.039062 36.300781 10.078125 36.300781 C 8.640625 36.300781 7.96875 35.808594 7.679688 35.519531 C 7.296875 35.230469 7.101562 34.859375 7.199219 34.378906 C 7.296875 33.421875 8.449219 32.539062 10.558594 31.769531 C 11.039062 31.578125 14.300781 30.429688 16.320312 29.761719 Z M 35.039062 27.75 C 32.738281 27.847656 30.335938 28.21875 27.839844 28.890625 L 27.839844 33.300781 C 28.898438 32.917969 30.324219 32.449219 32.339844 31.679688 C 36.949219 30.046875 38.871094 30.230469 39.449219 30.421875 C 40.601562 30.515625 41.089844 31.199219 41.28125 31.679688 C 41.761719 33.121094 39.949219 33.78125 37.261719 34.738281 C 36.011719 35.21875 30.621094 37.140625 27.839844 38.101562 L 27.839844 42.539062 L 42.71875 37.261719 L 43.859375 36.78125 C 45.78125 36.109375 48.191406 34.847656 48 32.640625 C 47.902344 30.527344 45.324219 29.46875 43.5 28.890625 C 40.8125 28.027344 37.921875 27.652344 35.039062 27.75 Z M 35.039062 27.75 "/>
</g>
</svg>
